<?xml version="1.0" encoding="UTF-8"?>
<svg version="1.1" xmlns="http://www.w3.org/2000/svg" width="1598" height="1685">
<path d="M0 0 C527.34 0 1054.68 0 1598 0 C1598 556.05 1598 1112.1 1598 1685 C1070.66 1685 543.32 1685 0 1685 C0 1128.95 0 572.9 0 0 Z " fill="#FEFEFE" transform="translate(0,0)"/>
<path d="M0 0 C0.16272795 28.58519934 -0.27560109 57.13908942 -0.92712402 85.71630859 C-1.05093907 91.1890581 -1.16974843 96.66191647 -1.2890625 102.13476562 C-1.52132673 112.7566183 -1.75883779 123.37834586 -2 134 C-3.81299339 134.07664131 -3.81299339 134.07664131 -5.66261292 134.15483093 C-10.23739342 134.34962372 -14.81184893 134.55134018 -19.38624573 134.75492859 C-21.34915846 134.84137093 -23.31214994 134.92604702 -25.27522278 135.0087738 C-70.64859793 136.92614259 -114.80964774 144.9590671 -158 159 C-159.0420459 159.33338379 -160.0840918 159.66676758 -161.15771484 160.01025391 C-209.97130635 175.72395795 -255.96301768 200.35376024 -297 231 C-297.60569824 231.45117188 -298.21139648 231.90234375 -298.83544922 232.3671875 C-306.51924387 238.11533652 -313.88013549 244.19482314 -321.14990234 250.453125 C-322.49425108 251.57714105 -323.86266502 252.67256721 -325.24462891 253.75 C-333.72123735 260.42747193 -341.26152473 267.95787102 -348.86181641 275.60107422 C-351.12052144 277.87050018 -353.38972326 280.12903274 -355.66015625 282.38671875 C-363.23773566 289.95739004 -370.38718096 297.56554337 -377 306 C-377.99393861 307.16482954 -378.99672466 308.32222097 -380.01171875 309.46875 C-437.41258335 374.3836421 -473.49956624 459.71242396 -491 573 C-491.13277344 574.0410791 -491.26554688 575.0821582 -491.40234375 576.15478516 C-498.93136491 637.51842252 -491.98047593 706.26601275 -471.74487305 764.76171875 C-470.81647046 767.55149094 -469.97658943 770.36435697 -469.12890625 773.1796875 C-451.5009184 830.71697618 -420.83698511 886.12682931 -382 932 C-381.13096145 933.04251137 -380.26250152 934.08550528 -379.39453125 935.12890625 C-369.53373925 946.91902119 -359.10410967 958.08272296 -348.23876953 968.9465332 C-346.49611683 970.69138808 -344.76166837 972.44413743 -343.02734375 974.19726562 C-336.32358848 980.93418842 -329.44545778 987.08324704 -322 993 C-320.83573687 993.99460202 -319.67826777 994.997277 -318.53125 996.01171875 C-247.46597193 1058.85104994 -152.61049642 1095.55504243 -55 1107 C-53.83243164 1107.13422363 -52.66486328 1107.26844727 -51.46191406 1107.40673828 C-20.60163591 1110.75048375 12.20473834 1110.86530122 43 1107 C43.71788696 1106.91234375 44.43577393 1106.8246875 45.17541504 1106.734375 C76.17635097 1102.94467822 107.1511655 1097.98814452 136.76171875 1087.74487305 C139.55149094 1086.81647046 142.36435697 1085.97658943 145.1796875 1085.12890625 C202.71697618 1067.5009184 258.12682931 1036.83698511 304 998 C305.04251137 997.13096145 306.08550528 996.26250152 307.12890625 995.39453125 C318.91902119 985.53373925 330.08272296 975.10410967 340.9465332 964.23876953 C342.69138808 962.49611683 344.44413743 960.76166837 346.19726562 959.02734375 C352.93418842 952.32358848 359.08324704 945.44545778 365 938 C365.99460202 936.83573687 366.997277 935.67826777 368.01171875 934.53125 C398.35866447 900.21175463 422.19970446 858.64701231 441 817 C447.08715544 818.94209005 452.99497748 821.14562542 458.87890625 823.6328125 C459.71177658 823.98184128 460.54464691 824.33087006 461.40275574 824.69047546 C464.12406846 825.83202054 466.84331297 826.97840175 469.5625 828.125 C471.48006038 828.93077986 473.39770497 829.73635937 475.31542969 830.54174805 C489.79174661 836.62668157 504.24856635 842.75784533 518.69189453 848.9206543 C526.56484421 852.27819236 534.44609951 855.61186823 542.35546875 858.8828125 C543.82259521 859.49111975 545.28971771 860.09943656 546.75683594 860.70776367 C549.47712923 861.83522991 552.20082308 862.95388135 554.92675781 864.06762695 C556.70904785 864.80565552 556.70904785 864.80565552 558.52734375 865.55859375 C559.56624756 865.98454834 560.60515137 866.41050293 561.67553711 866.84936523 C564 868 564 868 565 870 C564.01879883 872.6159668 564.01879883 872.6159668 562.45703125 875.94921875 C562.17777298 876.54951904 561.89851471 877.14981934 561.61079407 877.76831055 C560.68702599 879.74574243 559.75069054 881.71687377 558.8125 883.6875 C558.33257599 884.7033165 558.33257599 884.7033165 557.84295654 885.73965454 C535.66735745 932.66926597 508.09814786 977.32553742 474.62109375 1017.07470703 C473.09514195 1018.88700461 471.57772697 1020.70607809 470.0625 1022.52734375 C464.40893476 1029.29714859 458.55527942 1035.84410923 452.55151367 1042.30493164 C451.37916404 1043.58575359 450.22013675 1044.87878715 449.06762695 1046.17749023 C443.55224002 1052.38685398 437.81672954 1058.33870385 431.93383789 1064.1965332 C430.43193075 1065.69304925 428.93548938 1067.194883 427.43945312 1068.69726562 C422.66531032 1073.47470356 417.84173787 1078.1416862 412.7097168 1082.53540039 C410.31314959 1084.58837864 408.00526408 1086.7338618 405.6875 1088.875 C401.25503526 1092.91279322 396.72257823 1096.77307434 392.0546875 1100.53515625 C389.8168842 1102.34085175 387.59518101 1104.15979312 385.3828125 1105.99609375 C375.56378921 1114.11600339 365.43332285 1121.68878657 355 1129 C353.84129395 1129.81235107 353.84129395 1129.81235107 352.65917969 1130.64111328 C272.95142804 1186.29768728 181.76022326 1223.18726513 70.94042969 1239.45117188 C68.37221953 1239.8088755 65.80508036 1240.17438194 63.23925781 1240.54882812 C53.88310245 1241.87590737 44.55483865 1242.64334803 35.125 1243.125 C34.32609344 1243.16602844 33.52718689 1243.20705688 32.70407104 1243.24932861 C-57.21522056 1247.71114441 -145.31703578 1235.06150614 -264.3125 1188.3125 C-264.99111084 1188.00638794 -265.66972168 1187.70027588 -266.36889648 1187.3848877 C-274.95229512 1183.4988844 -283.32439849 1179.32934319 -291.59887695 1174.82250977 C-294.99139781 1173.00460953 -298.41196349 1171.30349116 -301.875 1169.625 C-337.31569219 1152.00409468 -370.87566453 1128.0549579 -401.07470703 1102.62109375 C-402.88700461 1101.09514195 -404.70607809 1099.57772697 -406.52734375 1098.0625 C-413.29714859 1092.40893476 -419.84410923 1086.55527942 -426.30493164 1080.55151367 C-427.58575359 1079.37916404 -428.87878715 1078.22013675 -430.17749023 1077.06762695 C-436.38685398 1071.55224002 -442.33870385 1065.81672954 -448.1965332 1059.93383789 C-449.69304925 1058.43193075 -451.194883 1056.93548938 -452.69726562 1055.43945312 C-457.47470356 1050.66531032 -462.1416862 1045.84173787 -466.53540039 1040.7097168 C-468.58837864 1038.31314959 -470.7338618 1036.00526408 -472.875 1033.6875 C-476.91279322 1029.25503526 -480.77307434 1024.72257823 -484.53515625 1020.0546875 C-486.34085175 1017.8168842 -488.15979312 1015.59518101 -489.99609375 1013.3828125 C-498.11600339 1003.56378921 -505.68878657 993.43332285 -513 983 C-513.81235107 981.84129395 -513.81235107 981.84129395 -514.64111328 980.65917969 C-570.29768728 900.95142804 -607.18726513 809.76022326 -623.45117188 698.93823242 C-623.80807049 696.37723087 -624.17349662 693.81739827 -624.54882812 691.2590332 C-625.90994135 681.70277871 -626.64017452 672.19472394 -627.125 662.5625 C-627.16669312 661.75307953 -627.20838623 660.94365906 -627.25134277 660.10971069 C-631.26142598 580.43105884 -622.23055744 500.01803913 -540 302 C-539.5551123 301.27506348 -539.11022461 300.55012695 -538.65185547 299.80322266 C-527.02250403 280.9110807 -514.5718862 262.55171834 -501 245 C-500.30463135 244.09628662 -500.30463135 244.09628662 -499.59521484 243.17431641 C-493.78715332 235.63947898 -487.78534109 228.29919033 -481.6015625 221.0703125 C-479.25742299 218.32265955 -477.00116684 215.51199772 -474.75 212.6875 C-464.82383332 200.55358696 -453.62041853 189.52795611 -442.5625 178.4375 C-442.04839569 177.92071686 -441.53429138 177.40393372 -441.00460815 176.87149048 C-435.71667727 171.56265242 -430.40199216 166.33586497 -424.70532227 161.46020508 C-422.30988073 159.40907611 -420.00374915 157.26473872 -417.6875 155.125 C-413.25503526 151.08720678 -408.72257823 147.22692566 -404.0546875 143.46484375 C-401.8168842 141.65914825 -399.59518101 139.84020688 -397.3828125 138.00390625 C-387.56365181 129.88388298 -377.4324716 122.31264482 -367 115 C-366.24348145 114.46906738 -365.48696289 113.93813477 -364.70751953 113.39111328 C-287.77502926 59.61195058 -199.16482861 22.0955974 -97 6 C-95.83146484 5.8457959 -94.66292969 5.6915918 -93.45898438 5.53271484 C-62.22600653 1.42406534 -31.49126664 -0.26227387 0 0 Z " fill="#FEAB4D" transform="translate(800,194)"/>
<path d="M0 0 C114.84 0 229.68 0 348 0 C348 77.88 348 155.76 348 236 C308.94617857 253.57421964 269.54754899 267.26231575 227.21386719 274.44580078 C224.20153367 274.96524754 221.19864689 275.52099142 218.1953125 276.08984375 C158.98778639 287.05533224 97.25739226 283.68059859 38.625 271.0625 C37.88928772 270.90545593 37.15357544 270.74841187 36.39556885 270.58660889 C24.07136965 267.93188365 12.15748665 264.47356762 0 261 C0 174.87 0 88.74 0 0 Z " fill="#D9D9D9" transform="translate(652,1017)"/>
<path d="M0 0 C39.27 0 78.54 0 119 0 C119 137.61 119 275.22 119 417 C111.20869991 414.40289997 104.09270597 411.46043792 96.6875 408 C96.07062317 407.71210602 95.45374634 407.42421204 94.81817627 407.12759399 C67.69817209 394.43811703 41.92555162 379.00907801 18 361 C16.81592476 360.12258944 15.63106874 359.24623123 14.4453125 358.37109375 C11.61197447 356.26860452 8.78769913 354.16257872 6 352 C4.4575615 351.12678085 4.4575615 351.12678085 2.88396263 350.23592091 C0.60745446 348.30223559 0.04631079 347.23016728 -0.55043864 344.26428831 C-0.76038591 340.57745954 -0.77122499 336.91519743 -0.7215271 333.2252655 C-0.72414368 331.78963754 -0.72939742 330.35401237 -0.7370621 328.91840249 C-0.75048784 324.97298636 -0.7264675 321.02854621 -0.69639373 317.08325446 C-0.67050323 312.82904245 -0.67924974 308.57488629 -0.68380737 304.32061768 C-0.6869548 296.94973376 -0.6681165 289.5791683 -0.63438034 282.20836449 C-0.5856354 271.55145205 -0.56999346 260.89469374 -0.56245239 250.2376819 C-0.54931787 232.94783669 -0.50938078 215.65816123 -0.45263672 198.3684082 C-0.39756972 181.57219289 -0.35509567 164.77602367 -0.32958984 147.97973633 C-0.3280135 146.94456248 -0.32643716 145.90938863 -0.32481305 144.84284588 C-0.31698288 139.64972662 -0.30940062 134.45660703 -0.30194163 129.26348722 C-0.23973267 86.17550737 -0.12911752 43.08784149 0 0 Z " fill="#83D31A" transform="translate(491,845)"/>
<path d="M0 0 C105.93 0 211.86 0 321 0 C321 35.31 321 70.62 321 107 C215.07 107 109.14 107 0 107 C0 71.69 0 36.38 0 0 Z " fill="#83D31A" transform="translate(657,761)"/>
<path d="M0 0 C15.4130082 11.00292782 24.95759429 25.98431926 29.125 44.3984375 C29.703125 47.9296875 29.703125 47.9296875 29.72290039 50.56103516 C29.76412222 56.05970575 29.76412222 56.05970575 32.17822266 60.82128906 C34.24852559 62.50711466 36.36339365 63.91117892 38.640625 65.3046875 C40.2974674 66.40666192 41.95370103 67.50955209 43.609375 68.61328125 C44.45886719 69.16226074 45.30835938 69.71124023 46.18359375 70.27685547 C50.09732905 72.84429616 53.86272648 75.60552901 57.640625 78.3671875 C59.1390435 79.44960566 60.63774389 80.5316337 62.13671875 81.61328125 C67.64318209 85.6030084 73.11088293 89.64489067 78.57983398 93.68579102 C84.84539483 98.3103563 91.13072014 102.90751106 97.47631836 107.421875 C100.72112937 109.73520801 103.90993468 112.05488201 106.95703125 114.625 C107.88386719 115.38554688 108.81070313 116.14609375 109.765625 116.9296875 C110.51972656 117.5896875 111.27382813 118.2496875 112.05078125 118.9296875 C116.36303576 120.55551542 119.68196528 118.65018719 123.703125 116.9296875 C125.39973267 116.20894043 125.39973267 116.20894043 127.13061523 115.47363281 C130.50094789 114.02188961 133.85357917 112.53228834 137.20309448 111.03323364 C140.18731576 109.69830451 143.17617729 108.37392027 146.16481018 107.04890442 C148.47809137 106.02320181 150.79080566 104.99622808 153.10351562 103.96923828 C159.6168964 101.0792396 166.13683676 98.2045514 172.6678772 95.35467529 C173.97819332 94.78180345 175.2875909 94.20682581 176.59603882 93.62969971 C178.40943207 92.83004234 180.22612305 92.03787573 182.04296875 91.24609375 C183.58005493 90.57235718 183.58005493 90.57235718 185.14819336 89.88500977 C187.703125 88.9296875 187.703125 88.9296875 190.703125 88.9296875 C190.64511719 88.21425781 190.58710937 87.49882813 190.52734375 86.76171875 C189.93279666 73.63072157 195.09574931 62.66445559 203.51171875 52.8125 C211.42498512 44.37380548 221.78880093 38.13521456 233.53515625 37.49609375 C235.1951484 37.4727159 236.85559203 37.47191376 238.515625 37.4921875 C239.82720581 37.50354736 239.82720581 37.50354736 241.1652832 37.51513672 C252.3319138 37.79815002 260.85712656 41.18903669 269.703125 47.9296875 C270.734375 48.6721875 271.765625 49.4146875 272.828125 50.1796875 C281.86418562 58.82287592 287.10783428 70.01984438 287.94140625 82.49609375 C288.21986426 97.48885918 284.40441019 110.14745696 273.828125 121.2421875 C263.37680653 131.0798869 250.90437345 135.41489451 236.6640625 135.265625 C222.76910994 134.08715762 211.33975838 128.2166842 201.828125 117.9921875 C198.51330285 113.9744633 196.03539256 109.57272706 193.703125 104.9296875 C189.05287479 105.60332453 184.99635813 107.39615761 180.73828125 109.2890625 C179.96015076 109.6301152 179.18202026 109.97116791 178.38031006 110.32255554 C175.84005807 111.43705674 173.30286824 112.55835579 170.765625 113.6796875 C169.01349934 114.44983355 167.26113731 115.21944206 165.50854492 115.98852539 C162.84191815 117.1588259 160.17546774 118.32951161 157.50984192 119.50209045 C151.87874899 121.978788 146.24068051 124.4385394 140.59375 126.87890625 C139.89797348 127.17961029 139.20219696 127.48031433 138.4853363 127.79013062 C135.85765154 128.9251664 133.22962096 130.05939589 130.60110474 131.19250488 C128.82870707 131.9568024 127.05691629 132.72250678 125.28515625 133.48828125 C124.29749268 133.91423584 123.3098291 134.34019043 122.29223633 134.77905273 C119.74242376 135.85725251 119.74242376 135.85725251 117.60424805 137.14477539 C115.1597488 138.15402993 114.14091272 137.88990066 111.703125 136.9296875 C109.88232422 135.82910156 109.88232422 135.82910156 108.0078125 134.4453125 C107.30140625 133.92904297 106.595 133.41277344 105.8671875 132.88085938 C105.11179687 132.31947266 104.35640625 131.75808594 103.578125 131.1796875 C101.95064076 129.98681553 100.32303319 128.79411181 98.6953125 127.6015625 C97.86483398 126.98990234 97.03435547 126.37824219 96.17871094 125.74804688 C92.37088205 122.95113272 88.53661248 120.19126593 84.703125 117.4296875 C83.20169851 116.34522431 81.70039677 115.26058836 80.19921875 114.17578125 C77.21403392 112.01963451 74.22691112 109.86621246 71.23828125 107.71484375 C63.35943211 102.03966399 55.51207666 96.32575319 47.703125 90.5546875 C37.86472897 81.84018389 37.86472897 81.84018389 26.703125 76.9296875 C26.25324219 77.94546875 25.80335938 78.96125 25.33984375 80.0078125 C20.77395665 89.9229319 15.54764956 97.37128542 7.703125 104.9296875 C7.14367187 105.52007813 6.58421875 106.11046875 6.0078125 106.71875 C2.15733674 110.48858753 -2.54451632 112.80209322 -7.296875 115.2421875 C-7.97387451 115.59249023 -8.65087402 115.94279297 -9.34838867 116.30371094 C-13.71283309 118.45069756 -17.44911678 119.49414672 -22.296875 119.9296875 C-22.2757666 121.07969238 -22.2546582 122.22969727 -22.23291016 123.41455078 C-22.23540247 127.7394186 -22.70101103 131.8973821 -23.3203125 136.171875 C-23.42654938 136.93911896 -23.53278625 137.70636292 -23.64224243 138.49685669 C-23.98035 140.93354595 -24.3256033 143.36914623 -24.671875 145.8046875 C-26.03255395 155.46314852 -27.36548959 165.11976546 -28.4609375 174.8125 C-28.54620697 175.55515106 -28.63147644 176.29780212 -28.71932983 177.06295776 C-29.11942682 180.70230051 -29.39288456 184.26786492 -29.296875 187.9296875 C-28.53503906 188.25839844 -27.77320313 188.58710937 -26.98828125 188.92578125 C-14.27747029 194.78132338 -6.6920986 202.95224499 -1.48828125 215.94921875 C1.67225642 226.30270423 0.09375023 237.23768814 -4.296875 246.9296875 C-10.78206821 258.9095401 -20.17531669 266.38739556 -33.296875 270.3046875 C-45.44513242 272.70929103 -57.4141243 270.48703954 -67.734375 263.6171875 C-75.26551564 257.86524837 -79.47060751 251.55265263 -83.296875 242.9296875 C-83.66425781 242.19105469 -84.03164063 241.45242188 -84.41015625 240.69140625 C-87.54699898 230.92159212 -86.27362538 218.48044177 -81.77734375 209.4375 C-75.42508866 198.67721566 -67.36001741 190.90636479 -55.296875 186.9296875 C-51.94882566 186.32623401 -48.69031902 186.0595781 -45.296875 185.9296875 C-45.25949219 185.19314941 -45.22210937 184.45661133 -45.18359375 183.69775391 C-44.52872854 172.87803234 -43.13934525 162.18060388 -41.71289062 151.43994141 C-41.29320119 148.27700025 -40.88053084 145.11319829 -40.46875 141.94921875 C-40.20353241 139.92963396 -39.9379219 137.91010071 -39.671875 135.890625 C-39.54893066 134.94899506 -39.42598633 134.00736511 -39.29931641 133.03720093 C-39.18249512 132.16173615 -39.06567383 131.28627136 -38.9453125 130.38427734 C-38.84395996 129.6182016 -38.74260742 128.85212585 -38.63818359 128.06283569 C-38.30449256 125.97729658 -37.84125037 123.96939578 -37.296875 121.9296875 C-37.87953125 121.96449219 -38.4621875 121.99929688 -39.0625 122.03515625 C-55.11568318 122.56521419 -69.81913084 115.7984346 -81.7734375 105.3515625 C-93.90054634 93.71254163 -102.37413931 78.9490347 -103.296875 61.9296875 C-103.36519531 60.71539062 -103.43351563 59.50109375 -103.50390625 58.25 C-104.00137158 40.2307001 -98.31431222 24.43577122 -86.296875 10.9296875 C-85.76578125 10.31738281 -85.2346875 9.70507812 -84.6875 9.07421875 C-63.1087825 -14.19996941 -26.11050718 -16.62226277 0 0 Z " fill="#020202" transform="translate(650.296875,443.0703125)"/>
<path d="M0 0 C25.41 0 50.82 0 77 0 C77 109.89 77 219.78 77 333 C71.49736279 328.87302209 66.67423196 324.96252631 61.90234375 320.1328125 C61.2643837 319.49439423 60.62642365 318.85597595 59.96913147 318.19821167 C58.63157804 316.85766005 57.29643233 315.51470206 55.96362305 314.16943359 C53.94435423 312.13191617 51.91720615 310.10250753 49.88867188 308.07421875 C43.71890934 301.88769107 37.60728354 295.70887711 32 289 C31.12364982 287.98979622 30.24609589 286.9806351 29.3671875 285.97265625 C22.5372495 277.99725843 15.90978596 269.84155818 9.78269196 261.30885792 C8.05838756 258.96456918 8.05838756 258.96456918 5.96569061 257.014575 C-2.73851754 247.59570634 -1.06426662 236.05437907 -0.90820312 223.9855957 C-0.9059445 221.54065526 -0.90721716 219.09570939 -0.91174316 216.65077209 C-0.91355954 211.40299612 -0.89100636 206.15593785 -0.84584045 200.90838051 C-0.78058322 193.32155763 -0.75996467 185.73511865 -0.74993652 178.14804556 C-0.73246482 165.83618955 -0.67932781 153.52475966 -0.60351562 141.21313477 C-0.52998606 129.2597058 -0.47340669 117.30639293 -0.43945312 105.3527832 C-0.43735134 104.61489826 -0.43524955 103.87701331 -0.43308407 103.11676822 C-0.42264312 99.41469625 -0.41253361 95.71262347 -0.40258884 92.01055014 C-0.31977132 61.33999411 -0.17235489 30.67022098 0 0 Z " fill="#83D31A" transform="translate(398,845)"/>
<path d="M0 0 C0.02505615 1.19898926 0.0501123 2.39797852 0.07592773 3.63330078 C0.17119821 8.14737864 0.27110991 12.66134458 0.37231445 17.17529297 C0.41521698 19.1166723 0.45691602 21.05807866 0.49731445 22.99951172 C0.75406487 36.17515717 0.75406487 36.17515717 1.5234375 49.328125 C2.08330925 56.3855524 2.18611705 63.42128978 2.18530273 70.49609375 C2.18750558 72.63040672 2.20580672 74.76421398 2.22460938 76.8984375 C2.28124049 90.54574718 -0.2352683 102.94981697 -4 116 C-4.31324219 117.17175781 -4.62648438 118.34351563 -4.94921875 119.55078125 C-9.75300926 135.89081217 -19.28384339 150.88094389 -30 164 C-30.78503906 164.98613281 -31.57007813 165.97226562 -32.37890625 166.98828125 C-37.89471379 173.84896443 -43.71592798 179.89436733 -50.4375 185.5625 C-50.98470703 186.03107422 -51.53191406 186.49964844 -52.09570312 186.98242188 C-55.57928101 189.9300647 -59.14776656 192.5381587 -63 195 C-64.63582031 196.04607422 -64.63582031 196.04607422 -66.3046875 197.11328125 C-74.09818214 201.9540831 -81.96967293 205.9737469 -90.44140625 209.4921875 C-93.98197092 210.92764025 -93.98197092 210.92764025 -97.15234375 212.6953125 C-100.06910515 214.03166135 -101.84017233 214.27880832 -105 214 C-109.64200447 186.56243786 -107.31241483 159.66203024 -98.72900391 133.32861328 C-98.04889651 131.15618717 -97.4501065 128.98251521 -96.88671875 126.77734375 C-92.58893912 110.18270016 -84.87973729 93.99998647 -75 80 C-74.28070312 78.9378125 -73.56140625 77.875625 -72.8203125 76.78125 C-62.94659233 62.23083444 -62.94659233 62.23083444 -59 58 C-58.34 58 -57.68 58 -57 58 C-56.77570313 57.44828125 -56.55140625 56.8965625 -56.3203125 56.328125 C-54.59614817 53.28788256 -52.37484178 51.18574327 -49.875 48.75 C-48.96492188 47.85796875 -48.05484375 46.9659375 -47.1171875 46.046875 C-46.06917969 45.03367187 -46.06917969 45.03367187 -45 44 C-54.21582765 49.93443447 -63.35513182 56.10114948 -71 64 C-71.58523438 64.57363281 -72.17046875 65.14726563 -72.7734375 65.73828125 C-77.08104206 69.97234134 -81.10392645 74.38556147 -85 79 C-85.90685547 80.05574219 -85.90685547 80.05574219 -86.83203125 81.1328125 C-91.21766635 86.40272026 -95.06907297 91.95298051 -98.8125 97.6875 C-99.28075195 98.400271 -99.74900391 99.11304199 -100.23144531 99.84741211 C-102.30598659 103.07585134 -104.17787544 106.21472488 -105.63671875 109.76953125 C-107 113 -107 113 -108.47265625 114.9609375 C-110.68899921 117.91984038 -112.00132336 121.24313837 -113.4375 124.625 C-113.72431641 125.28628906 -114.01113281 125.94757813 -114.30664062 126.62890625 C-115.21919241 128.74667677 -116.11240933 130.87165101 -117 133 C-117.33708984 133.80115234 -117.67417969 134.60230469 -118.02148438 135.42773438 C-126.95523619 157.11437485 -127.23257482 179.89097669 -128 203 C-131.97843264 199.9804055 -133.81083914 197.9617846 -135.5625 193.25 C-136.86316222 189.81157116 -138.2196881 186.57148936 -139.98046875 183.3515625 C-142.59929574 178.18639775 -143.65527196 172.7786487 -144.75 167.125 C-144.96462891 166.02019287 -145.17925781 164.91538574 -145.40039062 163.77709961 C-148.99379441 144.11176961 -147.21444076 124.69696671 -140 106 C-139.70351562 105.17628906 -139.40703125 104.35257813 -139.1015625 103.50390625 C-133.52921808 88.62050769 -124.59368107 74.82426018 -114 63 C-113.34 63 -112.68 63 -112 63 C-111.76796875 62.44441406 -111.5359375 61.88882813 -111.296875 61.31640625 C-105.72474902 51.36378364 -94.03555317 43.65666693 -85 37 C-84.36400879 36.53029785 -83.72801758 36.0605957 -83.07275391 35.57666016 C-73.50776056 28.58584892 -63.69729854 23.05311177 -53 18 C-51.31021107 17.12942857 -49.62237916 16.25503606 -47.9375 15.375 C-37.79389385 10.34511265 -27.18648169 6.61975157 -16.4375 3.125 C-15.49745117 2.81449707 -14.55740234 2.50399414 -13.58886719 2.18408203 C-12.69200195 1.89903809 -11.79513672 1.61399414 -10.87109375 1.3203125 C-10.07630615 1.06523926 -9.28151855 0.81016602 -8.46264648 0.54736328 C-5.58815895 -0.09153838 -2.93543821 -0.08986307 0 0 Z " fill="#5DBC52" transform="translate(1481,807)"/>
<path d="M0 0 C4.84948544 0.31916175 8.06778773 2.92229795 11.8125 5.75 C13.0560432 6.66446059 14.30082716 7.57723644 15.546875 8.48828125 C16.14177734 8.92479004 16.73667969 9.36129883 17.34960938 9.81103516 C21.26338889 12.6305775 25.40368953 15.06557436 29.5625 17.5 C32 19 32 19 35.125 21.3125 C37.97158041 23.37718708 40.88750046 25.05274505 44 26.6875 C59.59546358 35.03075212 74.15678087 45.8964427 87 58 C87.93779297 58.85851562 87.93779297 58.85851562 88.89453125 59.734375 C94.02227061 64.59588862 97.94328138 70.24122335 102 76 C102.57234375 76.62519531 103.1446875 77.25039063 103.734375 77.89453125 C105.62572788 81.04094854 105.35446476 83.39302893 105 87 C103.86328125 89.9296875 103.86328125 89.9296875 102.3125 92.875 C99.79592257 98.03904068 97.8598931 103.11153231 96.25 108.625 C96.05188721 109.29257324 95.85377441 109.96014648 95.6496582 110.64794922 C95.05202885 112.75611802 94.51338376 114.86974978 94 117 C93.81091064 117.77762695 93.62182129 118.55525391 93.42700195 119.35644531 C91.74369338 127.25937288 91.66136027 135.13773237 91.68432617 143.17919922 C91.68749486 145.49624372 91.66391405 147.81201773 91.63867188 150.12890625 C91.60332108 158.5313248 92.11197239 166.00273027 95 174 C95.25442871 174.70688965 95.50885742 175.4137793 95.77099609 176.14208984 C96.2271704 177.37091981 96.69470979 178.59557397 97.171875 179.81640625 C98.24549834 182.64732816 99.2188385 185.50653408 100.1875 188.375 C100.53167969 189.39335938 100.87585937 190.41171875 101.23046875 191.4609375 C102 194 102 194 102 196 C90.61573043 190.83801503 80.88129027 181.60374995 72 173 C71.175 172.20335937 70.35 171.40671875 69.5 170.5859375 C57.9371187 159.21837514 46.84980263 146.27000545 39 132 C39 131.34 39 130.68 39 130 C38.34 130 37.68 130 37 130 C34.97481134 126.01225738 32.97940917 122.01066001 31 118 C30.58234375 117.16082031 30.1646875 116.32164062 29.734375 115.45703125 C25.68658361 106.97016197 22.74914744 98.05949765 19.73461914 89.16650391 C19.12887995 87.38008665 18.51133747 85.5976762 17.890625 83.81640625 C16.89100895 80.65533971 16.14988524 77.48743658 15.4375 74.25 C14.56482996 70.00231566 14.56482996 70.00231566 13 66 C11.09957464 91.5923948 19.8702811 117.82201897 30 141 C30.30446045 141.71696045 30.6089209 142.4339209 30.92260742 143.17260742 C36.77338148 156.74374716 44.64203575 169.57619191 54 181 C54.45487793 181.56025879 54.90975586 182.12051758 55.37841797 182.69775391 C67.26950833 197.26662405 80.27017809 208.37342497 96.7265625 217.6171875 C97.47679687 218.07351563 98.22703125 218.52984375 99 219 C99 219.33 99 219.66 99 220 C89.27705241 220.49719618 80.43327505 219.10722428 71 217 C70.11570312 216.80664062 69.23140625 216.61328125 68.3203125 216.4140625 C56.86509836 213.44419217 45.45099525 207.01025279 36 200 C35.24332031 199.44570313 34.48664063 198.89140625 33.70703125 198.3203125 C21.14622102 188.85236509 11.59737062 176.70954097 4 163 C3.28286726 161.79147959 2.56539192 160.58316243 1.84765625 159.375 C-4.66275506 148.10850438 -8.10986415 136.6379744 -11 124 C-11.17257324 123.25878906 -11.34514648 122.51757812 -11.52294922 121.75390625 C-14.52139595 108.65852277 -15.19607506 95.77696822 -15.1875 82.375 C-15.18669434 81.05846436 -15.18588867 79.74192871 -15.18505859 78.38549805 C-15.1055738 65.69676396 -14.04121565 53.42425602 -11.55859375 40.97265625 C-11.10227755 38.54428822 -10.70991076 36.12684007 -10.34765625 33.68359375 C-9.21826264 26.18158304 -8.13678237 19.15315764 -4.98046875 12.1875 C-3.60089225 9.10956039 -2.62439038 5.92892808 -1.61328125 2.71484375 C-1 1 -1 1 0 0 Z " fill="#0F8447" transform="translate(1233,808)"/>
<path d="M0 0 C34.65 0 69.3 0 105 0 C105 35.31 105 70.62 105 107 C70.35 107 35.7 107 0 107 C0 71.69 0 36.38 0 0 Z " fill="#83D31A" transform="translate(663,891)"/>
<path d="M0 0 C3.55481171 0.56290945 4.93595468 1.67449253 7.1875 4.4375 C9.85199075 7.63034393 12.56688911 10.74465111 15.375 13.8125 C39.72278201 40.84266478 68.63630436 80.82173856 68 119 C66.68 119.33 65.36 119.66 64 120 C64 120.66 64 121.32 64 122 C63.16597656 122.43570313 62.33195312 122.87140625 61.47265625 123.3203125 C49.71907163 128.5278222 49.71907163 128.5278222 41 137 C40.01 137 39.02 137 38 137 C37.95512451 136.41734375 37.91024902 135.8346875 37.86401367 135.234375 C36.63742913 119.69050909 35.30274439 104.51642927 29.96484375 89.74609375 C29.25307841 87.72030008 28.61987603 85.66650059 28.03125 83.6015625 C26.99780682 79.99234049 25.81985126 76.47453486 24.5625 72.9375 C24.15128906 71.77089844 23.74007813 70.60429688 23.31640625 69.40234375 C22.05750422 66.14862367 20.61360958 63.09079153 19 60 C19.25394531 60.99515625 19.50789063 61.9903125 19.76953125 63.015625 C20.92848015 67.65932767 21.98427717 72.323037 23 77 C23.15968262 77.72735352 23.31936523 78.45470703 23.48388672 79.20410156 C25.95540345 91.00619774 26.28901042 102.73888953 26.3125 114.75 C26.31787781 115.85235992 26.31787781 115.85235992 26.32336426 116.97698975 C26.40499613 148.08828548 26.40499613 148.08828548 18.625 156.59765625 C17.75875 157.41105469 16.8925 158.22445312 16 159.0625 C12.69132725 162.17915156 10.17101826 164.99361433 8 169 C4.01149789 167.44531704 1.67420401 164.65153486 -1.0625 161.5 C-11.70439594 149.60316351 -23.65666786 140.2586568 -37.1875 131.875 C-39.20158461 130.61663937 -41.21508375 129.35735295 -43.22802734 128.09716797 C-44.74019705 127.16086449 -46.26892307 126.25138848 -47.80078125 125.34765625 C-49.86473449 124.02423331 -51.45874272 122.90333042 -53 121 C-53.64275858 117.37717891 -53.58745063 115.53449465 -53 112 C-52.8040625 110.73929688 -52.608125 109.47859375 -52.40625 108.1796875 C-51.17592125 100.86630475 -49.48936886 93.99498312 -47 87 C-46.74645752 86.28279785 -46.49291504 85.5655957 -46.23168945 84.82666016 C-40.53674607 69.01435282 -32.33603811 55.42538164 -23.29272461 41.33203125 C-18.33368551 33.58849069 -13.63424392 25.71988915 -9.03125 17.76123047 C-7.56239932 15.25263937 -6.02839786 12.78512442 -4.5 10.3125 C-2.48100954 6.97603271 -0.99987545 3.79952669 0 0 Z " fill="#6AB848" transform="translate(1339,695)"/>
<path d="M0 0 C32.67 0 65.34 0 99 0 C99 35.31 99 70.62 99 107 C66.33 107 33.66 107 0 107 C0 71.69 0 36.38 0 0 Z " fill="#83D31A" transform="translate(879,891)"/>
<path d="M0 0 C8.76242298 8.02696782 15.9470536 20.41325619 16.5859375 32.4140625 C16.91061998 48.42697408 13.25952029 61.72580212 2.375 73.875 C-8.14287715 83.91155057 -22.37195558 88.80465412 -36.7109375 88.49609375 C-49.34589709 87.47295435 -62.14154037 81.60378081 -70.75 72.25 C-81.67258448 59.31656314 -84.20177271 46.26557019 -83.03662109 29.77148438 C-81.60484071 17.17571967 -73.79588795 6.06671247 -64.26171875 -1.9296875 C-44.56464237 -16.20470708 -18.97455375 -14.91763357 0 0 Z " fill="#FDFDFD" transform="translate(646.75,460.75)"/>
<path d="M0 0 C20.79 0 41.58 0 63 0 C63 35.31 63 70.62 63 107 C42.21 107 21.42 107 0 107 C0 71.69 0 36.38 0 0 Z " fill="#83D31A" transform="translate(791,891)"/>
<path d="M0 0 C14.85 0 29.7 0 45 0 C45 32.34 45 64.68 45 98 C30.15 98 15.3 98 0 98 C0 65.66 0 33.32 0 0 Z " fill="#000000" transform="translate(920,1068)"/>
<path d="M0 0 C14.85 0 29.7 0 45 0 C45 32.34 45 64.68 45 98 C30.15 98 15.3 98 0 98 C0 65.66 0 33.32 0 0 Z " fill="#000000" transform="translate(846,1068)"/>
<path d="M0 0 C14.85 0 29.7 0 45 0 C45 32.34 45 64.68 45 98 C30.15 98 15.3 98 0 98 C0 65.66 0 33.32 0 0 Z " fill="#000000" transform="translate(772,1068)"/>
<path d="M0 0 C14.85 0 29.7 0 45 0 C45 32.34 45 64.68 45 98 C30.15 98 15.3 98 0 98 C0 65.66 0 33.32 0 0 Z " fill="#000000" transform="translate(698,1068)"/>
<path d="M0 0 C14.85 0 29.7 0 45 0 C45 28.05 45 56.1 45 85 C30.15 85 15.3 85 0 85 C0 56.95 0 28.9 0 0 Z " fill="#010101" transform="translate(772,1214)"/>
<path d="M0 0 C14.85 0 29.7 0 45 0 C45 24.75 45 49.5 45 75 C14 81 14 81 0 82 C0 54.94 0 27.88 0 0 Z " fill="#000000" transform="translate(846,1214)"/>
<path d="M0 0 C1.71605954 1.43911621 3.41885291 2.88963931 5.10546875 4.36328125 C6.70177304 5.7423565 8.34604684 7.06562042 10 8.375 C12 11 12 11 11.76782227 14.63183594 C11.08573276 19.02667895 9.95658005 23.250364 8.71484375 27.515625 C8.49429825 28.29387634 8.27375275 29.07212769 8.04652405 29.8739624 C7.3490394 32.33425567 6.64414259 34.79232266 5.9375 37.25 C5.00307796 40.50352511 4.07577267 43.75896528 3.15234375 47.015625 C2.93674301 47.75733948 2.72114227 48.49905396 2.49900818 49.26324463 C1.52952027 52.682016 1 55.41331058 1 59 C1.42925781 58.49855469 1.85851563 57.99710937 2.30078125 57.48046875 C10.73110533 47.87153625 19.92088489 38.98914065 29 30 C32.2910253 31.09700843 32.96023288 31.87619858 35.0625 34.5 C37.17721767 37.18106401 37.17721767 37.18106401 40 39 C38.39822218 42.98087165 35.61769406 45.65493174 32.6171875 48.61328125 C32.08408966 49.14592087 31.55099182 49.67856049 31.0017395 50.2273407 C29.87266483 51.35339921 28.74116559 52.4770312 27.60742188 53.59838867 C25.89664129 55.29108744 24.19382508 56.99147489 22.4921875 58.69335938 C17.38612684 63.78234495 12.25448214 68.76600396 6.77001953 73.45043945 C3.70384581 76.13471595 0.85853494 79.03565392 -2 81.9375 C-2.58394531 82.52595703 -3.16789062 83.11441406 -3.76953125 83.72070312 C-5.18204805 85.14479793 -6.5913781 86.5720525 -8 88 C-11.19982253 86.5521165 -13.7388402 84.82210466 -16.375 82.5 C-17.10460938 81.8915625 -17.83421875 81.283125 -18.5859375 80.65625 C-20.93202633 76.24923232 -19.27824577 72.65432253 -18 68 C-17.62698475 66.59086437 -17.25481702 65.18150424 -16.88330078 63.77197266 C-15.34744875 57.99928743 -13.75401228 52.24266881 -12.16259766 46.48510742 C-11.47769469 44.0026304 -10.79729347 41.51895095 -10.1171875 39.03515625 C-9.90472382 38.27268082 -9.69226013 37.51020538 -9.47335815 36.72462463 C-8.65334777 33.72706237 -8 31.12336263 -8 28 C-8.83660156 28.90878906 -9.67320313 29.81757813 -10.53515625 30.75390625 C-19.1413903 40.06047353 -27.98051375 49.09420475 -37 58 C-40.18086518 56.49053489 -42.29869906 54.92058175 -44.75 52.375 C-45.36359375 51.74335938 -45.9771875 51.11171875 -46.609375 50.4609375 C-47.06828125 49.97882813 -47.5271875 49.49671875 -48 49 C-46.67516919 46.06470651 -45.23855338 43.98962582 -42.96240234 41.71948242 C-42.34771088 41.10171432 -41.73301941 40.48394623 -41.09970093 39.84745789 C-40.435159 39.19010147 -39.77061707 38.53274506 -39.0859375 37.85546875 C-38.39746735 37.16745682 -37.70899719 36.47944489 -36.99966431 35.77058411 C-35.54104017 34.31497932 -34.07998809 32.86180403 -32.61669922 31.41088867 C-30.39891228 29.21121696 -28.18909123 27.00379113 -25.98046875 24.79492188 C-24.55775978 23.37713428 -23.13459669 21.95980219 -21.7109375 20.54296875 C-21.05854095 19.89168503 -20.40614441 19.24040131 -19.73397827 18.56938171 C-15.88544227 14.75959716 -11.93336256 11.12532493 -7.82070923 7.60176086 C-5.0815192 5.19197059 -2.54709171 2.610769 0 0 Z " fill="#040404" transform="translate(1198,387)"/>
<path d="M0 0 C6.4468657 1.00689971 11.92947785 3.19174792 17.9375 5.6875 C18.99646484 6.10966797 20.05542969 6.53183594 21.14648438 6.96679688 C28.45304052 9.98878485 34.19667491 13.20194665 38.9375 19.625 C40.87046584 25.76500913 41.15125097 32.84338318 38.8125 38.9375 C35.27306849 44.91791875 30.5744985 48.77114539 24 51 C22.33356356 51.02770172 20.66638366 51.0307128 19 51 C19.26478149 52.18758911 19.26478149 52.18758911 19.53491211 53.39916992 C20.33633335 56.99515572 21.13692527 60.59132566 21.9375 64.1875 C22.35418945 66.05631836 22.35418945 66.05631836 22.77929688 67.96289062 C23.04677734 69.16494141 23.31425781 70.36699219 23.58984375 71.60546875 C23.95903931 73.26292114 23.95903931 73.26292114 24.33569336 74.95385742 C24.91953282 77.63102203 25.4727416 80.31120092 26 83 C13.40248963 79.48962656 13.40248963 79.48962656 10 77 C8.44750464 74.14805918 7.77141364 71.13986202 7 68 C6.64614772 66.67534839 6.29054716 65.35116307 5.93359375 64.02734375 C5.55789922 62.60208731 5.18421139 61.17630044 4.8125 59.75 C4.63315918 59.06462158 4.45381836 58.37924316 4.26904297 57.6730957 C3.3625419 54.04133165 2.78950547 50.74535098 3 47 C1.35 46.67 -0.3 46.34 -2 46 C-2.23783203 46.87398438 -2.23783203 46.87398438 -2.48046875 47.765625 C-4.4679738 54.7493444 -7.10716317 61.34533188 -10 68 C-15.06081162 67.25320402 -19.26474281 65.8777744 -24 64 C-23.41034935 59.7122888 -22.3795045 56.00990743 -20.77514648 51.99462891 C-20.31474472 50.83387848 -19.85434296 49.67312805 -19.37998962 48.47720337 C-18.87715281 47.22693807 -18.37418447 45.97672566 -17.87109375 44.7265625 C-17.3563357 43.43497135 -16.84210718 42.14316904 -16.3283844 40.85116577 C-14.98066456 37.46579209 -13.62580806 34.08331994 -12.26940918 30.70141602 C-10.88424096 27.24408491 -9.5058913 23.78403824 -8.12695312 20.32421875 C-5.42460801 13.54681391 -2.71471227 6.77246201 0 0 Z " fill="#040404" transform="translate(967,247)"/>
<path d="M0 0 C14.85 0 29.7 0 45 0 C45 17.82 45 35.64 45 54 C36.3684375 56.908125 36.3684375 56.908125 27.5625 59.875 C24.86622437 60.78741455 24.86622437 60.78741455 22.11547852 61.71826172 C20.66174247 62.20576574 19.20789228 62.69292956 17.75390625 63.1796875 C16.65701477 63.55299194 16.65701477 63.55299194 15.53796387 63.93383789 C10.35325867 65.66293149 5.39768977 66.80051339 0 68 C0 45.56 0 23.12 0 0 Z " fill="#000000" transform="translate(920,1214)"/>
<path d="M0 0 C0.70133599 1.57725347 1.385583 3.16211333 2.0625 4.75 C2.44535156 5.63171875 2.82820313 6.5134375 3.22265625 7.421875 C4.08457454 10.28049847 4.17466852 11.29128949 3 14 C0.86694336 15.18847656 0.86694336 15.18847656 -1.91015625 16.140625 C-2.89951172 16.48867188 -3.88886719 16.83671875 -4.90820312 17.1953125 C-5.94912109 17.54335938 -6.99003906 17.89140625 -8.0625 18.25 C-9.10728516 18.61351562 -10.15207031 18.97703125 -11.22851562 19.3515625 C-13.81438223 20.24894087 -16.40450825 21.13093562 -19 22 C-18.43708038 25.08821642 -17.74997605 27.93156594 -16.58984375 30.84765625 C-16.32236328 31.53537109 -16.05488281 32.22308594 -15.77929688 32.93164062 C-15.21623621 34.35692877 -14.65111741 35.7814055 -14.08398438 37.20507812 C-12.71805 40.72740284 -12 43.17124253 -12 47 C-9.1040094 45.87540455 -6.20823584 44.75025125 -3.3125 43.625 C-2.49587891 43.30789063 -1.67925781 42.99078125 -0.83789062 42.6640625 C-0.04189453 42.3546875 0.75410156 42.0453125 1.57421875 41.7265625 C2.34556152 41.42782227 3.1169043 41.12908203 3.91162109 40.82128906 C5.58280332 40.1640694 7.24108707 39.47408726 8.89453125 38.7734375 C11 38 11 38 14 38 C15.65 42.62 17.3 47.24 19 52 C13.22419547 54.15089058 7.44822647 56.30133875 1.67211914 58.45141602 C-0.28365284 59.17949113 -2.23938352 59.90767717 -4.19506836 60.63598633 C-8.93335711 62.40051483 -13.67228484 64.16327899 -18.41259766 65.92236328 C-22.12937939 67.30203538 -25.84208491 68.69198354 -29.55224609 70.08935547 C-31.27829838 70.73541017 -33.00437158 71.38140897 -34.73046875 72.02734375 C-35.5239119 72.32862686 -36.31735504 72.62990997 -37.13484192 72.94032288 C-40.21843075 74.0896727 -42.68069673 75 -46 75 C-46.83764268 73.04350603 -47.66999059 71.08474444 -48.5 69.125 C-48.9640625 68.03445313 -49.428125 66.94390625 -49.90625 65.8203125 C-51 63 -51 63 -51 61 C-47.04366575 59.4946891 -43.08461633 57.99665407 -39.125 56.5 C-37.99707031 56.07074219 -36.86914062 55.64148438 -35.70703125 55.19921875 C-34.63066406 54.79316406 -33.55429688 54.38710938 -32.4453125 53.96875 C-30.95281982 53.40317383 -30.95281982 53.40317383 -29.43017578 52.82617188 C-27 52 -27 52 -25 52 C-25.24234375 51.34402832 -25.4846875 50.68805664 -25.734375 50.01220703 C-26.82624991 47.05102128 -27.9131828 44.08804555 -29 41.125 C-29.3815625 40.09246094 -29.763125 39.05992187 -30.15625 37.99609375 C-30.5171875 37.00996094 -30.878125 36.02382813 -31.25 35.0078125 C-31.58515625 34.09660645 -31.9203125 33.18540039 -32.265625 32.24658203 C-33 30 -33 30 -33 28 C-33.60473145 28.20157715 -34.20946289 28.4031543 -34.83251953 28.61083984 C-43.22167969 31.40722656 -51.61083984 34.20361328 -60 37 C-60.86580287 35.06767179 -61.71729941 33.12892806 -62.5625 31.1875 C-63.03816406 30.10855469 -63.51382812 29.02960937 -64.00390625 27.91796875 C-65 25 -65 25 -64 22 C-62.35496521 21.07218933 -62.35496521 21.07218933 -60.19311523 20.28588867 C-59.3839415 19.98514938 -58.57476776 19.6844101 -57.74107361 19.3745575 C-56.85585526 19.05888321 -55.9706369 18.74320892 -55.05859375 18.41796875 C-53.68599144 17.912976 -53.68599144 17.912976 -52.28565979 17.39778137 C-49.34011958 16.31681121 -46.38906606 15.25189272 -43.4375 14.1875 C-41.505468 13.48219096 -39.57382249 12.77582225 -37.64257812 12.06835938 C-34.79662045 11.02625496 -31.94997463 9.98639847 -29.10018921 8.95480347 C-24.78527874 7.39262001 -20.48128858 5.8126235 -16.20361328 4.15087891 C-15.47280045 3.8685994 -14.74198761 3.58631989 -13.98902893 3.29548645 C-12.0565981 2.54514314 -10.12786854 1.78528666 -8.19946289 1.0246582 C-5.22522122 0.07212922 -3.08851317 -0.23224919 0 0 Z " fill="#040404" transform="translate(1357,614)"/>
<path d="M0 0 C4.67105792 1.55701931 8.08705685 4.08447373 12 7 C11.40126856 9.90716218 10.54615059 11.9842484 8.8828125 14.43579102 C8.44565918 15.08649063 8.00850586 15.73719025 7.55810547 16.40760803 C7.08518066 17.09938644 6.61225586 17.79116486 6.125 18.50390625 C5.39821045 19.58344826 5.39821045 19.58344826 4.65673828 20.68479919 C3.1099399 22.98110047 1.55558616 25.27214454 0 27.5625 C-1.55477617 29.85694796 -3.10782584 32.15250163 -4.65673828 34.45091248 C-5.62024674 35.88016409 -6.58725878 37.30706134 -7.55810547 38.7313385 C-11.48550995 44.54893306 -12.91634725 49.03576087 -12 56 C-10.20606332 58.87029869 -9.01736724 60.49131638 -6 62 C-4.03122878 62.35041736 -4.03122878 62.35041736 -1.8125 62.4375 C-0.70841797 62.52837891 -0.70841797 62.52837891 0.41796875 62.62109375 C7.42948219 60.93451185 11.74417541 53.96330902 15.35546875 48.1953125 C16.31694531 46.71086496 17.27853711 45.22649206 18.24023438 43.7421875 C19.7254496 41.4205967 21.20587947 39.09605842 22.68334961 36.76953125 C24.12501075 34.50795345 25.58308905 32.25765659 27.04296875 30.0078125 C27.70089668 28.95329391 27.70089668 28.95329391 28.37211609 27.87747192 C29.63745117 25.93408203 29.63745117 25.93408203 32 23 C36.38206967 23 37.30426964 23.56771975 40.75 26 C41.54921875 26.556875 42.3484375 27.11375 43.171875 27.6875 C43.77515625 28.120625 44.3784375 28.55375 45 29 C44.07931717 33.43944915 41.73573543 36.7284793 39.23046875 40.43359375 C38.7530574 41.14854507 38.27564606 41.8634964 37.7837677 42.60011292 C36.77351146 44.11063061 35.7604773 45.61929357 34.74487305 47.1262207 C33.19804953 49.42184356 31.65983516 51.72304087 30.12304688 54.02539062 C29.13852353 55.49512853 28.1535132 56.96454036 27.16796875 58.43359375 C26.7105278 59.11707382 26.25308685 59.80055389 25.78178406 60.50474548 C18.78410853 70.87323432 18.78410853 70.87323432 14.0625 73.6875 C13.41410156 74.08324219 12.76570313 74.47898437 12.09765625 74.88671875 C5.72054735 78.27121789 0.15860358 78.87365274 -7 78 C-14.87060437 75.33610314 -21.63276052 70.79439572 -25.875 63.5625 C-28.75905738 57.24012013 -29.33346742 50.79726468 -28 44 C-23.96586233 33.7591949 -17.39571526 24.8175115 -11.1875 15.8125 C-10.21093074 14.3826105 -9.2350149 12.9522745 -8.25976562 11.52148438 C-1.22448801 1.22448801 -1.22448801 1.22448801 0 0 Z " fill="#050505" transform="translate(1087,303)"/>
<path d="M0 0 C4.77781697 3.09548705 8.72049774 6.32234003 12 11 C10.68818459 14.93544623 8.04041273 16.74938163 4.8515625 19.14453125 C3 20 3 20 0.95703125 19.7890625 C-2.16619267 18.52979856 -4.43214117 16.14861657 -7 14 C-11.64556659 11.29008616 -16.77326685 11.47650873 -22 12 C-28.38787977 13.98966747 -31.93403161 17.15038843 -35.8125 22.5 C-38.07429033 29.1663294 -38.32030064 36.9639951 -35.4375 43.5 C-32.56661305 48.34974831 -28.27286655 51.24237782 -23 53 C-16.37759676 53.65261163 -11.37981281 53.39788925 -5.75390625 49.6796875 C-4 49 -4 49 -1.98046875 49.6328125 C0.27945136 51.19291514 1.63603369 52.78283415 3.25 55 C4.03117188 56.051875 4.03117188 56.051875 4.828125 57.125 C6 59 6 59 6 61 C4.42578125 62.21875 4.42578125 62.21875 2.3125 63.5 C1.62800781 63.9228125 0.94351563 64.345625 0.23828125 64.78125 C-8.57264926 69.57882473 -19.37809817 69.23642027 -29.1171875 67.41796875 C-39.450722 63.8028824 -46.79470884 55.06715827 -51.75 45.6875 C-54.49510083 37.8313551 -54.57013021 26.52885006 -51.25 18.8125 C-50.53525585 17.52150884 -49.7884989 16.24731185 -49 15 C-48.443125 13.989375 -47.88625 12.97875 -47.3125 11.9375 C-35.9441547 -2.50337105 -17.23230481 -8.69213258 0 0 Z " fill="#040404" transform="translate(873,220)"/>
<path d="M0 0 C9.38238027 5.21037323 17.90823501 13.55782019 20.9765625 24.09765625 C21.30386704 27.09296812 21.26459383 30.0269495 21.1640625 33.03515625 C21.14375977 34.20401367 21.14375977 34.20401367 21.12304688 35.39648438 C21.08806474 37.29718029 21.03427209 39.19751459 20.9765625 41.09765625 C17.62439516 42.19941754 15.22535172 41.99068683 11.7890625 41.28515625 C10.90863281 41.11371094 10.02820312 40.94226563 9.12109375 40.765625 C8.05955078 40.43498047 8.05955078 40.43498047 6.9765625 40.09765625 C5.74302481 37.63058088 6.00711488 36.21287694 6.1640625 33.47265625 C6.20766152 27.42983188 4.66080987 23.06088439 0.5859375 18.5625 C-4.54861208 13.92789341 -9.98621559 12.58940123 -16.7265625 12.79296875 C-23.92028661 13.74723828 -28.19308119 17.88105296 -32.67578125 23.29296875 C-36.2041465 28.01791004 -35.61594668 33.43136156 -35.0234375 39.09765625 C-33.44970163 44.29169033 -31.3396388 48.72430791 -26.5859375 51.59765625 C-23.42540433 52.92840706 -20.3143253 54.13446958 -17.0234375 55.09765625 C-17.16548491 56.68133372 -17.31223903 58.26458943 -17.4609375 59.84765625 C-17.54214844 60.729375 -17.62335938 61.61109375 -17.70703125 62.51953125 C-17.98582215 64.79116077 -18.41134327 66.89617448 -19.0234375 69.09765625 C-26.75997822 69.55748036 -33.32554203 66.2328285 -39.1796875 61.26953125 C-43.60493104 56.49492637 -46.43990496 51.03170755 -49.0234375 45.09765625 C-49.4565625 44.14890625 -49.8896875 43.20015625 -50.3359375 42.22265625 C-52.6811548 31.56257761 -50.49250838 23.19843608 -45.2109375 13.91015625 C-34.27706567 -0.14767896 -17.38680484 -7.21653097 0 0 Z " fill="#040404" transform="translate(1293.0234375,504.90234375)"/>
<path d="M0 0 C5.62708022 0.72607487 11.95262202 2.95262202 16 7 C16.55838059 11.86588799 16.70014014 13.92791041 14 18.0625 C10.70712768 20.18914671 8.96949277 20.40871574 5.13671875 19.6640625 C1.53001066 18.54314774 -1.72919995 16.8702713 -5 15 C-1.92482916 4.44191344 -1.92482916 4.44191344 0 0 Z " fill="#F6F6F6" transform="translate(976,265)"/>
<path d="M0 0 C2 3 2 3 1.625 6.1875 C1.315625 7.5796875 1.315625 7.5796875 1 9 C3.475 9.495 3.475 9.495 6 10 C4.875 12 4.875 12 3 14 C-0.5483045 14.3774792 -3.59750576 14.04692131 -7 13 C-7.82638376 15.89234315 -8 17.88742431 -8 21 C-9.32 21.33 -10.64 21.66 -12 22 C-16 17.375 -16 17.375 -16 14 C-16.66 14 -17.32 14 -18 14 C-18.33 12.02 -18.66 10.04 -19 8 C-17.23268551 6.6827656 -15.46102239 5.37136412 -13.6875 4.0625 C-12.70136719 3.33160156 -11.71523437 2.60070312 -10.69921875 1.84765625 C-6.78178219 -0.8338886 -4.5118788 -1.3882704 0 0 Z " fill="#69C25F" transform="translate(1403,970)"/>
<path d="M0 0 C1 1 1 1 1.375 4.25 C0.90453837 8.95461632 -0.40607684 10.05951741 -4 13 C-5.31175986 14.02813611 -6.6369893 15.04084432 -8 16 C-7.67 17.98 -7.34 19.96 -7 22 C-8.65 22.33 -10.3 22.66 -12 23 C-12.33 21.68 -12.66 20.36 -13 19 C-13.66 19 -14.32 19 -15 19 C-16.98676371 16.42456556 -18 14.78861117 -18 11.5 C-15.35309786 4.88274466 -7.28896995 -1.07190735 0 0 Z " fill="#69C25F" transform="translate(1444,941)"/>
<path d="M0 0 C0.66 0.33 1.32 0.66 2 1 C2 1.99 2 2.98 2 4 C0.68 4.33 -0.64 4.66 -2 5 C-2 5.66 -2 6.32 -2 7 C0.31 6.34 2.62 5.68 5 5 C4.814375 6.2375 4.62875 7.475 4.4375 8.75 C4.05288777 11.76279577 3.9125406 14.10010827 5 17 C3.35 17.33 1.7 17.66 0 18 C-1.15037471 16.3990869 -2.29514816 14.79414775 -3.4375 13.1875 C-4.07558594 12.29417969 -4.71367188 11.40085937 -5.37109375 10.48046875 C-7 8 -7 8 -8 5 C-6.71475739 4.13619741 -5.42157581 3.28419631 -4.125 2.4375 C-3.04605469 1.72400391 -3.04605469 1.72400391 -1.9453125 0.99609375 C-1.30335937 0.66738281 -0.66140625 0.33867188 0 0 Z " fill="#1F8E54" transform="translate(1292,852)"/>
<path d="M0 0 C3.34708051 1.54841575 6.24667512 3.49105864 9.25 5.625 C10.14203125 6.25664063 11.0340625 6.88828125 11.953125 7.5390625 C12.96632813 8.26222656 12.96632813 8.26222656 14 9 C13.01 9.495 13.01 9.495 12 10 C12.33 11.32 12.66 12.64 13 14 C11.35 14.66 9.7 15.32 8 16 C0 5.86163522 0 5.86163522 0 0 Z " fill="#2A905B" transform="translate(1295,847)"/>
<path d="M0 0 C5.73138244 -0.15490223 10.89349206 0.34755115 16.5 1.5 C17.22703125 1.64308594 17.9540625 1.78617188 18.703125 1.93359375 C20.47009071 2.28233698 22.23525309 2.64019723 24 3 C24.33 2.01 24.66 1.02 25 0 C27.97 1.65 30.94 3.3 34 5 C34 5.33 34 5.66 34 6 C27.03015845 6.35641235 20.46232328 5.92526699 13.625 4.625 C12.95984375 4.49891357 12.2946875 4.37282715 11.609375 4.24291992 C7.62440067 3.44122391 3.8276737 2.36279404 0 1 C0 0.67 0 0.34 0 0 Z " fill="#388F62" transform="translate(1298,1022)"/>
<path d="M0 0 C0.33 0 0.66 0 1 0 C1.29854639 6.44860204 0.25825856 11.81283071 -1.5 18 C-1.73847656 18.87011719 -1.97695312 19.74023438 -2.22265625 20.63671875 C-2.806109 22.76048675 -3.39866134 24.88124079 -4 27 C-4.66 27 -5.32 27 -6 27 C-6.66 32.28 -7.32 37.56 -8 43 C-8.33 43 -8.66 43 -9 43 C-8.363077 31.51862481 -7.51217222 21.00320015 -2.953125 10.37109375 C-1.58853865 6.97640557 -0.79278875 3.56754935 0 0 Z " fill="#63A785" transform="translate(1231,810)"/>
<path d="M0 0 C0.33 0 0.66 0 1 0 C0.88513575 2.37587624 0.75841844 4.75015171 0.625 7.125 C0.5940625 7.79015625 0.563125 8.4553125 0.53125 9.140625 C0.27931371 13.42354185 -0.59291761 16.97011604 -2 21 C-2.30878905 23.37558868 -2.30878905 23.37558868 -2.25 25.625 C-2.25773437 26.72714844 -2.25773437 26.72714844 -2.265625 27.8515625 C-1.96781656 30.26030725 -1.19513895 31.90376423 0 34 C-3.875 32.125 -3.875 32.125 -5 31 C-5.41448745 25.0935539 -4.70963202 19.61741328 -3.625 13.8125 C-3.49899414 13.13566162 -3.37298828 12.45882324 -3.24316406 11.76147461 C-2.44848434 7.71921035 -1.38702174 3.87763035 0 0 Z " fill="#9BC985" transform="translate(1291,785)"/>
<path d="M0 0 C2 1 2 1 3.2890625 4.52734375 C3.74228263 5.99497717 4.18724847 7.46517872 4.625 8.9375 C4.85445312 9.67935547 5.08390625 10.42121094 5.3203125 11.18554688 C7 16.69952102 7 16.69952102 7 19 C3.11390189 17.24933204 -0.27812258 14.81675994 -3.75 12.375 C-4.35199219 11.95476563 -4.95398437 11.53453125 -5.57421875 11.1015625 C-7.05113043 10.07006863 -8.52579194 9.03535421 -10 8 C-8.68 7.67 -7.36 7.34 -6 7 C-6 7.66 -6 8.32 -6 9 C-5.38125 9.309375 -4.7625 9.61875 -4.125 9.9375 C-2.75 10.625 -1.375 11.3125 0 12 C0 8.04 0 4.08 0 0 Z " fill="#549E78" transform="translate(1328,985)"/>
<path d="M0 0 C2.75979741 3.28585851 4.18309468 6.62228796 5.6875 10.625 C6.12449219 11.77226563 6.56148437 12.91953125 7.01171875 14.1015625 C8 17 8 17 8 19 C7.34 19 6.68 19 6 19 C6.165 19.969375 6.33 20.93875 6.5 21.9375 C7.13396273 26.29487763 7.0896672 30.60630704 7 35 C6.67 35 6.34 35 6 35 C5.92483154 34.45174561 5.84966309 33.90349121 5.7722168 33.33862305 C3.92968323 19.55758668 3.92968323 19.55758668 0.55078125 6.09375 C0 4 0 4 0 0 Z " fill="#E0F2D6" transform="translate(1357,753)"/>
<path d="M0 0 C0.33 0 0.66 0 1 0 C1.20535341 11.020633 0.58130339 21.99852423 0 33 C-4.8984375 29.28125 -4.8984375 29.28125 -5.8125 26.75 C-5.9053125 25.88375 -5.9053125 25.88375 -6 25 C-5.01 25.33 -4.02 25.66 -3 26 C-2.01 17.42 -1.02 8.84 0 0 Z " fill="#BDDEB8" transform="translate(1353,977)"/>
<path d="M0 0 C3.99996286 1.33332095 4.83782337 3.4957827 7 7 C6.34 8.32 5.68 9.64 5 11 C3.68 10.67 2.36 10.34 1 10 C1 9.34 1 8.68 1 8 C0.34 8 -0.32 8 -1 8 C-1.66 6.02 -2.32 4.04 -3 2 C-2.01 1.34 -1.02 0.68 0 0 Z " fill="#68C25E" transform="translate(1447,935)"/>
<path d="M0 0 C0.33 0 0.66 0 1 0 C1.24984036 13.82450015 0.6516039 27.27104257 -1 41 C-1.33 41 -1.66 41 -2 41 C-2.41277905 13.05485809 -2.41277905 13.05485809 0 0 Z " fill="#94CA8E" transform="translate(1376,964)"/>
<path d="M0 0 C0 11.88 0 23.76 0 36 C-0.33 36 -0.66 36 -1 36 C-1.33 25.11 -1.66 14.22 -2 3 C-6.96762993 3 -11.1706254 3.21153068 -16 4 C-10.73722731 0.49148487 -6.3029024 0 0 0 Z " fill="#85C27E" transform="translate(1481,807)"/>
<path d="M0 0 C0.66 0.33 1.32 0.66 2 1 C-2.66666667 5.66666667 -7.33333333 10.33333333 -12 15 C-12 14.01 -12 13.02 -12 12 C-13.32 12.99 -14.64 13.98 -16 15 C-16.66 14.67 -17.32 14.34 -18 14 C-12.13142165 9.12897384 -6.28303486 4.32831291 0 0 Z " fill="#DDF4DA" transform="translate(1435,850)"/>
<path d="M0 0 C7.82490023 -0.62599202 14.60937233 1.67485871 22 4 C22 4.33 22 4.66 22 5 C14.76214511 5.42575617 7.90841063 4.21150296 1 2 C0.67 1.34 0.34 0.68 0 0 Z " fill="#58A07B" transform="translate(1298,1022)"/>
<path d="M0 0 C0.66 0.33 1.32 0.66 2 1 C-2.76008307 6.5930976 -7.74595676 11.86877855 -13 17 C-13.66 16.67 -14.32 16.34 -15 16 C-5.62016881 5.47578854 -5.62016881 5.47578854 -1 1 C-0.67 0.67 -0.34 0.34 0 0 Z " fill="#DFF1DD" transform="translate(1415,865)"/>
<path d="M0 0 C0.66 0.33 1.32 0.66 2 1 C-5.20969846 9.98012737 -5.20969846 9.98012737 -11 12 C-11.66 11.67 -12.32 11.34 -13 11 C-11.58510266 9.72719706 -10.16800334 8.4568417 -8.75 7.1875 C-7.96109375 6.47980469 -7.1721875 5.77210938 -6.359375 5.04296875 C-4.2983167 3.25831065 -2.20394477 1.60240938 0 0 Z " fill="#7DC175" transform="translate(1397,843)"/>
<path d="M0 0 C4 1 4 1 6.25 4.0625 C6.8275 5.031875 7.405 6.00125 8 7 C5.66666667 7 3.33333333 7 1 7 C-0.98 7.99 -0.98 7.99 -3 9 C-2.01 6.03 -1.02 3.06 0 0 Z " fill="#97C881" transform="translate(1339,695)"/>
<path d="M0 0 C0.66 0 1.32 0 2 0 C1.72414063 0.80695312 1.44828125 1.61390625 1.1640625 2.4453125 C-0.18513629 6.56534908 -1.41176695 10.7133285 -2.625 14.875 C-2.96917969 16.050625 -2.96917969 16.050625 -3.3203125 17.25 C-3.88120299 19.16637583 -4.44074018 21.08314765 -5 23 C-5.33 23 -5.66 23 -6 23 C-6.18159081 17.73386664 -5.88244929 13.98295401 -4 9 C-3.63893903 7.33911955 -3.29537827 5.67381019 -3 4 C-2.01 4 -1.02 4 0 4 C0 2.68 0 1.36 0 0 Z " fill="#429268" transform="translate(1332,902)"/>
<path d="M0 0 C0.33 0 0.66 0 1 0 C2.31727753 5.0056546 3.35812082 9.86496656 4 15 C3.34 14.67 2.68 14.34 2 14 C1.67 16.31 1.34 18.62 1 21 C0.67 21 0.34 21 0 21 C0 14.07 0 7.14 0 0 Z " fill="#B8DFCC" transform="translate(1245,868)"/>
<path d="M0 0 C-0.1875 1.8125 -0.1875 1.8125 -1 4 C-3.90696599 6.14197494 -5.35521088 7 -9 7 C-9 6.01 -9 5.02 -9 4 C-5.7309841 0.8217901 -4.67834007 0 0 0 Z " fill="#5EBC54" transform="translate(1400,974)"/>
<path d="M0 0 C0.33 0 0.66 0 1 0 C1.24923458 7.93396732 0.70994772 15.2441657 -1 23 C-1.33 23 -1.66 23 -2 23 C-2.24923458 15.06603268 -1.70994772 7.7558343 0 0 Z " fill="#258E57" transform="translate(1223,848)"/>
<path d="M0 0 C0.33 0.66 0.66 1.32 1 2 C2.98 1.67 4.96 1.34 7 1 C7 1.99 7 2.98 7 4 C6.34 4 5.68 4 5 4 C5 4.99 5 5.98 5 7 C1.63408134 5.55746343 -0.51047079 3.66735273 -3 1 C-2.01 0.67 -1.02 0.34 0 0 Z " fill="#86C36B" transform="translate(1321,836)"/>
<path d="M0 0 C0.7734375 0.495 0.7734375 0.495 1.5625 1 C4.78026512 2.32010877 7.5570528 2.13242105 11 2 C10 4 10 4 7.75 5.125 C4.98386705 6.00513321 2.87951649 6.1645438 0 6 C0 4.02 0 2.04 0 0 Z " fill="#8FCA88" transform="translate(1376,1015)"/>
<path d="M0 0 C4.63770202 4.32852188 6.17251495 7.41520928 6.625 13.75 C6.69976563 14.73484375 6.77453125 15.7196875 6.8515625 16.734375 C6.90054687 17.48203125 6.94953125 18.2296875 7 19 C4.79030081 16.79030081 4.35716847 15.1150255 3.57421875 12.15234375 C2.89465898 9.60515031 2.13744014 7.08606949 1.375 4.5625 C1.11460938 3.69753906 0.85421875 2.83257813 0.5859375 1.94140625 C0.39257812 1.30074219 0.19921875 0.66007813 0 0 Z " fill="#8CC075" transform="translate(1363,765)"/>
<path d="M0 0 C-1.450954 3.82524236 -3.38181932 5.19090966 -7 7 C-7.66 7 -8.32 7 -9 7 C-8.62607279 4.28902773 -8.18642373 3.17999533 -6.1875 1.25 C-4 0 -4 0 0 0 Z " fill="#5EBB54" transform="translate(1441,946)"/>
<path d="M0 0 C1.5719239 2.87418721 2.43128389 5.47837606 3.0625 8.6875 C3.47713272 11.62766119 3.47713272 11.62766119 5 14 C5.04092937 16.33297433 5.04241723 18.66705225 5 21 C2.27960591 18.27960591 2.15198872 15.93509713 1.375 12.1875 C1.11460938 10.96417969 0.85421875 9.74085938 0.5859375 8.48046875 C0.09297596 5.5522772 -0.12382257 2.95485688 0 0 Z " fill="#8AC684" transform="translate(1336,967)"/>
<path d="M0 0 C3.42931954 3.7559214 4.56429083 8.23466745 6 13 C5.01 13.66 4.02 14.32 3 15 C2.49363393 13.25183142 1.99515381 11.50137737 1.5 9.75 C1.2215625 8.77546875 0.943125 7.8009375 0.65625 6.796875 C0 4 0 4 0 0 Z " fill="#C4EAB2" transform="translate(1357,753)"/>
<path d="M0 0 C2.64 0.66 5.28 1.32 8 2 C6.25 4.0625 6.25 4.0625 4 6 C1.75 5.75 1.75 5.75 0 5 C0 3.35 0 1.7 0 0 Z " fill="#74BF54" transform="translate(1377,805)"/>
<path d="M0 0 C0.99 0.33 1.98 0.66 3 1 C3 1.66 3 2.32 3 3 C4.65 3 6.3 3 8 3 C8 2.34 8 1.68 8 1 C8.66 1.33 9.32 1.66 10 2 C8.515 4.475 8.515 4.475 7 7 C3.17053157 5.54744301 1.87949705 3.57104439 0 0 Z " fill="#8EC277" transform="translate(1340,857)"/>
<path d="M0 0 C0.99 0.33 1.98 0.66 3 1 C-1.01254885 4.51098025 -5.20983041 6.76537994 -10 9 C-10 8.34 -10 7.68 -10 7 C-8.68 6.67 -7.36 6.34 -6 6 C-6 5.34 -6 4.68 -6 4 C-3 2 -3 2 0 2 C0 1.34 0 0.68 0 0 Z " fill="#78BD6E" transform="translate(1417,999)"/>
<path d="M0 0 C0.99 0.33 1.98 0.66 3 1 C-0.3 3.64 -3.6 6.28 -7 9 C-7.33 8.01 -7.66 7.02 -8 6 C-5.38485683 3.87961365 -2.80362384 1.86908256 0 0 Z " fill="#6DB764" transform="translate(1432,850)"/>
<path d="M0 0 C0.99 0.99 1.98 1.98 3 3 C3 3.66 3 4.32 3 5 C3.66 5.33 4.32 5.66 5 6 C4.01 7.485 4.01 7.485 3 9 C2.01 9 1.02 9 0 9 C0 6.03 0 3.06 0 0 Z " fill="#8FC277" transform="translate(1377,823)"/>
<path d="M0 0 C0.88336837 2.4667645 1.1312406 3.63859372 0.22265625 6.140625 C-0.16019531 6.83671875 -0.54304688 7.5328125 -0.9375 8.25 C-1.31777344 8.95640625 -1.69804688 9.6628125 -2.08984375 10.390625 C-2.39019531 10.92171875 -2.69054688 11.4528125 -3 12 C-3.66 12 -4.32 12 -5 12 C-3.85814266 7.52040582 -2.56984833 3.85477249 0 0 Z " fill="#93C47D" transform="translate(1302,759)"/>
<path d="M0 0 C0.33 0.66 0.66 1.32 1 2 C0.06421005 4.35981813 -0.93347808 6.69631264 -2 9 C-2.66 9 -3.32 9 -4 9 C-4 9.66 -4 10.32 -4 11 C-4.66 11 -5.32 11 -6 11 C-4.54955729 6.89041233 -2.48889248 3.56741255 0 0 Z " fill="#90C278" transform="translate(1320,730)"/>
<path d="M0 0 C1.37988943 2.75977886 0.62402826 4.01978801 -0.25 6.9375 C-0.62898438 8.25041016 -0.62898438 8.25041016 -1.015625 9.58984375 C-2.01885365 12.04616152 -2.99968237 13.29748247 -5 15 C-4.54705135 13.24859857 -4.08741252 11.49892656 -3.625 9.75 C-3.36976562 8.77546875 -3.11453125 7.8009375 -2.8515625 6.796875 C-2.10401491 4.34162697 -1.22876183 2.24382595 0 0 Z " fill="#9BCE94" transform="translate(1390,917)"/>
<path d="M0 0 C0.33 0.66 0.66 1.32 1 2 C-0.28062485 3.7074998 -1.61767557 5.37373596 -3 7 C-3.66 7 -4.32 7 -5 7 C-5.33 7.99 -5.66 8.98 -6 10 C-6.66 10 -7.32 10 -8 10 C-6.34908222 5.70761377 -3.26245434 3.1206085 0 0 Z " fill="#73BA6B" transform="translate(1432,855)"/>
<path d="M0 0 C1 3 1 3 -0.1875 6 C-1.91646162 8.86172959 -3.19955455 10.26179248 -6 12 C-5.67 10.35 -5.34 8.7 -5 7 C-4.01 7 -3.02 7 -2 7 C-1.855625 6.21625 -1.71125 5.4325 -1.5625 4.625 C-1 2 -1 2 0 0 Z " fill="#81BC68" transform="translate(1362,840)"/>
<path d="M0 0 C0.66 1.32 1.32 2.64 2 4 C0.625 5.5 0.625 5.5 -1 7 C-1.66 7 -2.32 7 -3 7 C-3 7.99 -3 8.98 -3 10 C-3.66 10 -4.32 10 -5 10 C-3.84414715 6.08788267 -2.64465038 3.1254959 0 0 Z " fill="#93C57B" transform="translate(1308,749)"/>
<path d="M0 0 C0.33 0 0.66 0 1 0 C1 3.96 1 7.92 1 12 C-0.32 11.67 -1.64 11.34 -3 11 C-3.33 9.68 -3.66 8.36 -4 7 C-3.01 7.33 -2.02 7.66 -1 8 C-0.67 5.36 -0.34 2.72 0 0 Z " fill="#93CB8C" transform="translate(1351,995)"/>
<path d="M0 0 C0.99 0 1.98 0 3 0 C3.69670416 1.78810766 4.38211189 3.58062052 5.0625 5.375 C5.63677734 6.87160156 5.63677734 6.87160156 6.22265625 8.3984375 C7 11 7 11 6 13 C5.18501438 11.3970947 4.37310073 9.79262722 3.5625 8.1875 C3.11003906 7.29417969 2.65757813 6.40085937 2.19140625 5.48046875 C1 3 1 3 0 0 Z " fill="#5EA37E" transform="translate(1263,923)"/>
<path d="M0 0 C0.66 0.33 1.32 0.66 2 1 C-0.31 3.31 -2.62 5.62 -5 8 C-5.99 7.34 -6.98 6.68 -8 6 C-5.36 4.02 -2.72 2.04 0 0 Z " fill="#B8ECB0" transform="translate(1435,850)"/>
<path d="M0 0 C0.66 0.33 1.32 0.66 2 1 C-0.41556126 4.19199167 -2.68003538 6.74716687 -6 9 C-6.66 8.67 -7.32 8.34 -8 8 C-5.36 5.36 -2.72 2.72 0 0 Z " fill="#86C27E" transform="translate(1382,855)"/>
<path d="M0 0 C1.5625 1.75 1.5625 1.75 3 4 C2.6875 6.25 2.6875 6.25 2 8 C0.35 6.02 -1.3 4.04 -3 2 C-2.01 1.34 -1.02 0.68 0 0 Z " fill="#83C068" transform="translate(1329,841)"/>
<path d="M0 0 C0.66 0.33 1.32 0.66 2 1 C-2.296875 5.00390625 -2.296875 5.00390625 -4 6 C-6.203125 5.65234375 -6.203125 5.65234375 -8 5 C-6.71475739 4.13619741 -5.42157581 3.28419631 -4.125 2.4375 C-3.04605469 1.72400391 -3.04605469 1.72400391 -1.9453125 0.99609375 C-1.30335937 0.66738281 -0.66140625 0.33867188 0 0 Z " fill="#8FC987" transform="translate(1416,831)"/>
<path d="M0 0 C0.6875 1.6875 0.6875 1.6875 1 4 C-0.25 6.6875 -0.25 6.6875 -2 9 C-2.99 9.33 -3.98 9.66 -5 10 C-3.66511872 6.40608886 -2.03977277 3.24509304 0 0 Z " fill="#96C680" transform="translate(1329,715)"/>
<path d="M0 0 C2.40034102 3.60051153 4.32187705 6.96144535 3.625 11.375 C3.41875 11.91125 3.2125 12.4475 3 13 C0.89172945 9.83759418 0.66182535 8.49342531 0.375 4.8125 C0.30023437 3.91144531 0.22546875 3.01039063 0.1484375 2.08203125 C0.09945313 1.39496094 0.05046875 0.70789063 0 0 Z " fill="#8FC078" transform="translate(1401,789)"/>
<path d="M0 0 C0.33 0.99 0.66 1.98 1 3 C-1.15634036 5.15634036 -3.37098712 6.47793991 -6 8 C-4.55746343 4.63408134 -2.66735273 2.48952921 0 0 Z " fill="#CECECE" transform="translate(1191,413)"/>
<path d="M0 0 C1.32 0.33 2.64 0.66 4 1 C1.69 2.65 -0.62 4.3 -3 6 C-3 5.01 -3 4.02 -3 3 C-2.34 3 -1.68 3 -1 3 C-0.67 2.01 -0.34 1.02 0 0 Z " fill="#77BE6E" transform="translate(1433,986)"/>
<path d="M0 0 C1.32 0 2.64 0 4 0 C4 0.66 4 1.32 4 2 C5.32 2.33 6.64 2.66 8 3 C7.67 3.66 7.34 4.32 7 5 C4.11562221 3.70700306 2.12780579 2.34058637 0 0 Z " fill="#99C884" transform="translate(1311,832)"/>
</svg>
